<svg xmlns="http://www.w3.org/2000/svg" viewBox="0 0 145.22 551.26"><defs><style>.cls-1{fill:#fff;}</style></defs><g id="Layer_2" data-name="Layer 2"><g id="Layer_1-2" data-name="Layer 1"><g id="Capa_1" data-name="Capa 1"><path class="cls-1" d="M92.5,185.34q15,0,20.27-10.55a52.5,52.5,0,0,0,5.37-24.16q0-20.88-10.88-29.47a31.68,31.68,0,0,0-17.78-6.08v20.8A15.5,15.5,0,0,1,97,139q3.78,3.23,3.79,11a22.74,22.74,0,0,1-1.93,10.45,7.26,7.26,0,0,1-7,3.57q-4.16,0-6.14-4.65a33.83,33.83,0,0,1-1.89-8.61L83,143.29c-1-8.31-2.83-14.72-5.29-19a27.6,27.6,0,0,0-1.81-2.74V90.69l69.35-24.54V39.87L33.74,0V24.37l22.91,7.56V66.82h0V73L33.74,80.33v25.26L56.59,97.5v15h-.92q-11.72,0-18.11,7.34a27.21,27.21,0,0,0-6.39,18.59,31.3,31.3,0,0,0,4,15.83,44.59,44.59,0,0,0,8.31,10.34H33.74v20.8H56.59v13.29H75.87V185.36ZM75.87,38.21l43.86,14.47L75.87,66.75ZM51,157.63a22.52,22.52,0,0,1-4.08-13A11.87,11.87,0,0,1,49.33,137a9.32,9.32,0,0,1,7.3-3v28.17a12.67,12.67,0,0,1-5.74-4.48Z"/><path class="cls-1" d="M0,242.92q0,26.16,13.92,35.39Q22,283.69,38,283.67h78.2v-21H104.3A25.83,25.83,0,0,0,116.24,250a28.1,28.1,0,0,0,1.9-10.73q0-16.77-12.51-25.91t-30.9-9.14q-19.08,0-30.22,9.5T33.36,239.05a26.77,26.77,0,0,0,5,16.71,26.36,26.36,0,0,0,7.94,6.65H41q-11.79,0-16.78-2.58c-5.2-2.62-7.8-9.1-7.8-16.86Zm57.17,14.39a16.64,16.64,0,0,1-5.72-12.73,15.68,15.68,0,0,1,10.43-15.66,31.75,31.75,0,0,1,12.8-2.41,37.69,37.69,0,0,1,14,2.26Q99.34,233,99.33,244.35a16.07,16.07,0,0,1-6.13,13.29q-6.14,5-17.84,5Q62.85,262.5,57.17,257.31Z"/><path class="cls-1" d="M111.44,366.67q6.65-8.07,6.65-20.81a27.18,27.18,0,0,0-5-16.8,36.27,36.27,0,0,0-9.15-7.82H116V300.35H33.74V322H78.37a32.31,32.31,0,0,1,12.54,2q9.32,4.05,9.3,15,0,8.88-6.34,12a23.14,23.14,0,0,1-10,1.66H33.74v22.1H89.25Q104.75,374.78,111.44,366.67Z"/><path class="cls-1" d="M102.31,459.19A33.35,33.35,0,0,0,114.5,445a47,47,0,0,0,3.87-19.39q0-18.15-11.43-29.49T74.08,384.73q-22.86,0-33,12.58a44.9,44.9,0,0,0-10.15,29q0,19.93,12,31a32.45,32.45,0,0,0,16.83,8.31l-1.93-22.28a18,18,0,0,1-5.68-4.47,18.29,18.29,0,0,1-3.77-12,21.84,21.84,0,0,1,3.11-11.87,17.56,17.56,0,0,1,11.63-7.9l5.76,59.31a102.67,102.67,0,0,0,16.35-.71A40.39,40.39,0,0,0,102.31,459.19ZM79.43,407c7.54,0,12.16,1.43,16.46,5.75a17.36,17.36,0,0,1,4.7,12.85,19,19,0,0,1-4.43,12.8c-3,3.42-7.31,5.35-13,5.73Z"/><path class="cls-1" d="M74.2,544.92q6.12-6.43,9.15-19.31,4.23-19.31,6-22.51a5.62,5.62,0,0,1,5.37-3.19,6.36,6.36,0,0,1,5.15,3q2.19,3,2.19,10.05,0,8.55-4.39,12.13A13,13,0,0,1,91,527.46v21.6q15.1-1.45,21.28-11.19t6.16-25.2q0-16.29-8.2-25.27a25.65,25.65,0,0,0-19.62-9q-9.7,0-14.82,5.74t-8.68,19.71q-4.57,19.46-6.47,22.54a6.34,6.34,0,0,1-11.19-.73,22.83,22.83,0,0,1-1.89-10.15q0-10.86,4.3-14.95a12.18,12.18,0,0,1,6-2.61V475.92a26.45,26.45,0,0,0-18.72,9.19q-8.19,9.27-8.21,28.76,0,19.08,7.76,28.24a25,25,0,0,0,19.94,9.14A20.8,20.8,0,0,0,74.2,544.92Z"/></g></g></g></svg>