<svg xmlns="http://www.w3.org/2000/svg" viewBox="0 0 119.55 68.65"><g id="Layer_2" data-name="Layer 2"><g id="Capa_1" data-name="Capa 1"><path d="M111.56,31.73q0-9-6.35-12.2A31.57,31.57,0,0,0,90.67,16.3q-12.57,0-17.74,6.55a19.06,19.06,0,0,0-3.66,10.7H81.79A9.34,9.34,0,0,1,83.64,29q1.94-2.28,6.6-2.28a13.6,13.6,0,0,1,6.29,1.16,4.37,4.37,0,0,1,2.15,4.21q0,2.5-2.8,3.69a20.08,20.08,0,0,1-5.18,1.14l-4.45.55c-5,.63-8.86,1.7-11.46,3.18a16.84,16.84,0,0,0-1.65,1.09H54.59L39.82,0H24L0,67.1H14.67l4.55-13.79h21v0h3.73L48.35,67.1H63.56L58.69,53.35h9c0,.18,0,.36,0,.55q0,7.05,4.42,10.9a16.38,16.38,0,0,0,11.19,3.85,18.83,18.83,0,0,0,9.53-2.41,26.68,26.68,0,0,0,6.22-5V67.1h12.52V53.35h8V41.74h-8ZM23,41.74l8.71-26.4,8.47,26.4Zm71.88,15a13.55,13.55,0,0,1-7.83,2.46,7.17,7.17,0,0,1-4.56-1.48,5.62,5.62,0,0,1-1.84-4.4H97.61A7.61,7.61,0,0,1,94.91,56.77Z"/></g></g></svg>